<svg xmlns="http://www.w3.org/2000/svg" width="300" viewBox="0 0 300 75" height="75" version="1.0"><defs><clipPath id="a"><path d="M 49 18 L 60 18 L 60 27 L 49 27 Z M 49 18"/></clipPath><clipPath id="b"><path d="M 15.78125 26.035156 L 54.214844 -0.140625 L 87.992188 49.449219 L 49.558594 75.625 Z M 15.78125 26.035156"/></clipPath><clipPath id="c"><path d="M 15.78125 26.035156 L 54.214844 -0.140625 L 87.992188 49.449219 L 49.558594 75.625 Z M 15.78125 26.035156"/></clipPath><clipPath id="d"><path d="M 15.78125 26.035156 L 54.214844 -0.140625 L 87.992188 49.449219 L 49.558594 75.625 Z M 15.78125 26.035156"/></clipPath><clipPath id="e"><path d="M 49 27 L 68 27 L 68 49 L 49 49 Z M 49 27"/></clipPath><clipPath id="f"><path d="M 15.78125 26.035156 L 54.214844 -0.140625 L 87.992188 49.449219 L 49.558594 75.625 Z M 15.78125 26.035156"/></clipPath><clipPath id="g"><path d="M 15.78125 26.035156 L 54.214844 -0.140625 L 87.992188 49.449219 L 49.558594 75.625 Z M 15.78125 26.035156"/></clipPath><clipPath id="h"><path d="M 15.78125 26.035156 L 54.214844 -0.140625 L 87.992188 49.449219 L 49.558594 75.625 Z M 15.78125 26.035156"/></clipPath><clipPath id="i"><path d="M 54 48 L 63 48 L 63 56 L 54 56 Z M 54 48"/></clipPath><clipPath id="j"><path d="M 15.78125 26.035156 L 54.214844 -0.140625 L 87.992188 49.449219 L 49.558594 75.625 Z M 15.78125 26.035156"/></clipPath><clipPath id="k"><path d="M 15.78125 26.035156 L 54.214844 -0.140625 L 87.992188 49.449219 L 49.558594 75.625 Z M 15.78125 26.035156"/></clipPath><clipPath id="l"><path d="M 15.78125 26.035156 L 54.214844 -0.140625 L 87.992188 49.449219 L 49.558594 75.625 Z M 15.78125 26.035156"/></clipPath><clipPath id="m"><path d="M 36 9 L 68 9 L 68 39 L 36 39 Z M 36 9"/></clipPath><clipPath id="n"><path d="M 15.78125 26.035156 L 54.214844 -0.140625 L 87.992188 49.449219 L 49.558594 75.625 Z M 15.78125 26.035156"/></clipPath><clipPath id="o"><path d="M 15.78125 26.035156 L 54.214844 -0.140625 L 87.992188 49.449219 L 49.558594 75.625 Z M 15.78125 26.035156"/></clipPath><clipPath id="p"><path d="M 15.78125 26.035156 L 54.214844 -0.140625 L 87.992188 49.449219 L 49.558594 75.625 Z M 15.78125 26.035156"/></clipPath><clipPath id="q"><path d="M 49 18 L 58 18 L 58 24 L 49 24 Z M 49 18"/></clipPath><clipPath id="r"><path d="M 15.78125 26.035156 L 54.214844 -0.140625 L 87.992188 49.449219 L 49.558594 75.625 Z M 15.78125 26.035156"/></clipPath><clipPath id="s"><path d="M 15.78125 26.035156 L 54.214844 -0.140625 L 87.992188 49.449219 L 49.558594 75.625 Z M 15.78125 26.035156"/></clipPath><clipPath id="t"><path d="M 15.78125 26.035156 L 54.214844 -0.140625 L 87.992188 49.449219 L 49.558594 75.625 Z M 15.78125 26.035156"/></clipPath><clipPath id="u"><path d="M 53 22 L 60 22 L 60 27 L 53 27 Z M 53 22"/></clipPath><clipPath id="v"><path d="M 15.78125 26.035156 L 54.214844 -0.140625 L 87.992188 49.449219 L 49.558594 75.625 Z M 15.78125 26.035156"/></clipPath><clipPath id="w"><path d="M 15.78125 26.035156 L 54.214844 -0.140625 L 87.992188 49.449219 L 49.558594 75.625 Z M 15.78125 26.035156"/></clipPath><clipPath id="x"><path d="M 15.78125 26.035156 L 54.214844 -0.140625 L 87.992188 49.449219 L 49.558594 75.625 Z M 15.78125 26.035156"/></clipPath><clipPath id="y"><path d="M 54 22 L 60 22 L 60 27 L 54 27 Z M 54 22"/></clipPath><clipPath id="z"><path d="M 15.78125 26.035156 L 54.214844 -0.140625 L 87.992188 49.449219 L 49.558594 75.625 Z M 15.78125 26.035156"/></clipPath><clipPath id="A"><path d="M 15.78125 26.035156 L 54.214844 -0.140625 L 87.992188 49.449219 L 49.558594 75.625 Z M 15.78125 26.035156"/></clipPath><clipPath id="B"><path d="M 15.78125 26.035156 L 54.214844 -0.140625 L 87.992188 49.449219 L 49.558594 75.625 Z M 15.78125 26.035156"/></clipPath><clipPath id="C"><path d="M 36 18 L 55 18 L 55 39 L 36 39 Z M 36 18"/></clipPath><clipPath id="D"><path d="M 15.78125 26.035156 L 54.214844 -0.140625 L 87.992188 49.449219 L 49.558594 75.625 Z M 15.78125 26.035156"/></clipPath><clipPath id="E"><path d="M 15.78125 26.035156 L 54.214844 -0.140625 L 87.992188 49.449219 L 49.558594 75.625 Z M 15.78125 26.035156"/></clipPath><clipPath id="F"><path d="M 15.78125 26.035156 L 54.214844 -0.140625 L 87.992188 49.449219 L 49.558594 75.625 Z M 15.78125 26.035156"/></clipPath><clipPath id="G"><path d="M 53 9 L 68 9 L 68 31 L 53 31 Z M 53 9"/></clipPath><clipPath id="H"><path d="M 15.78125 26.035156 L 54.214844 -0.140625 L 87.992188 49.449219 L 49.558594 75.625 Z M 15.78125 26.035156"/></clipPath><clipPath id="I"><path d="M 15.78125 26.035156 L 54.214844 -0.140625 L 87.992188 49.449219 L 49.558594 75.625 Z M 15.78125 26.035156"/></clipPath><clipPath id="J"><path d="M 15.78125 26.035156 L 54.214844 -0.140625 L 87.992188 49.449219 L 49.558594 75.625 Z M 15.78125 26.035156"/></clipPath><clipPath id="K"><path d="M 49 33 L 57 33 L 57 49 L 49 49 Z M 49 33"/></clipPath><clipPath id="L"><path d="M 15.78125 26.035156 L 54.214844 -0.140625 L 87.992188 49.449219 L 49.558594 75.625 Z M 15.78125 26.035156"/></clipPath><clipPath id="M"><path d="M 15.78125 26.035156 L 54.214844 -0.140625 L 87.992188 49.449219 L 49.558594 75.625 Z M 15.78125 26.035156"/></clipPath><clipPath id="N"><path d="M 15.78125 26.035156 L 54.214844 -0.140625 L 87.992188 49.449219 L 49.558594 75.625 Z M 15.78125 26.035156"/></clipPath><clipPath id="O"><path d="M 60 27 L 68 27 L 68 49 L 60 49 Z M 60 27"/></clipPath><clipPath id="P"><path d="M 15.78125 26.035156 L 54.214844 -0.140625 L 87.992188 49.449219 L 49.558594 75.625 Z M 15.78125 26.035156"/></clipPath><clipPath id="Q"><path d="M 15.78125 26.035156 L 54.214844 -0.140625 L 87.992188 49.449219 L 49.558594 75.625 Z M 15.78125 26.035156"/></clipPath><clipPath id="R"><path d="M 15.78125 26.035156 L 54.214844 -0.140625 L 87.992188 49.449219 L 49.558594 75.625 Z M 15.78125 26.035156"/></clipPath><clipPath id="S"><path d="M 55 47 L 63 47 L 63 56 L 55 56 Z M 55 47"/></clipPath><clipPath id="T"><path d="M 15.78125 26.035156 L 54.214844 -0.140625 L 87.992188 49.449219 L 49.558594 75.625 Z M 15.78125 26.035156"/></clipPath><clipPath id="U"><path d="M 15.78125 26.035156 L 54.214844 -0.140625 L 87.992188 49.449219 L 49.558594 75.625 Z M 15.78125 26.035156"/></clipPath><clipPath id="V"><path d="M 15.78125 26.035156 L 54.214844 -0.140625 L 87.992188 49.449219 L 49.558594 75.625 Z M 15.78125 26.035156"/></clipPath><clipPath id="W"><path d="M 54 48 L 57 48 L 57 56 L 54 56 Z M 54 48"/></clipPath><clipPath id="X"><path d="M 15.78125 26.035156 L 54.214844 -0.140625 L 87.992188 49.449219 L 49.558594 75.625 Z M 15.78125 26.035156"/></clipPath><clipPath id="Y"><path d="M 15.78125 26.035156 L 54.214844 -0.140625 L 87.992188 49.449219 L 49.558594 75.625 Z M 15.78125 26.035156"/></clipPath><clipPath id="Z"><path d="M 15.78125 26.035156 L 54.214844 -0.140625 L 87.992188 49.449219 L 49.558594 75.625 Z M 15.78125 26.035156"/></clipPath><clipPath id="aa"><path d="M 47 17 L 60 17 L 60 28 L 47 28 Z M 47 17"/></clipPath><clipPath id="ab"><path d="M 15.78125 26.035156 L 54.214844 -0.140625 L 87.992188 49.449219 L 49.558594 75.625 Z M 15.78125 26.035156"/></clipPath><clipPath id="ac"><path d="M 15.78125 26.035156 L 54.214844 -0.140625 L 87.992188 49.449219 L 49.558594 75.625 Z M 15.78125 26.035156"/></clipPath><clipPath id="ad"><path d="M 15.78125 26.035156 L 54.214844 -0.140625 L 87.992188 49.449219 L 49.558594 75.625 Z M 15.78125 26.035156"/></clipPath><clipPath id="ae"><path d="M 35 8 L 71 8 L 71 72 L 35 72 Z M 35 8"/></clipPath><clipPath id="af"><path d="M 15.78125 26.035156 L 54.214844 -0.140625 L 87.992188 49.449219 L 49.558594 75.625 Z M 15.78125 26.035156"/></clipPath><clipPath id="ag"><path d="M 15.78125 26.035156 L 54.214844 -0.140625 L 87.992188 49.449219 L 49.558594 75.625 Z M 15.78125 26.035156"/></clipPath><clipPath id="ah"><path d="M 15.78125 26.035156 L 54.214844 -0.140625 L 87.992188 49.449219 L 49.558594 75.625 Z M 15.78125 26.035156"/></clipPath><clipPath id="ai"><path d="M 48 3 L 58 3 L 58 8 L 48 8 Z M 48 3"/></clipPath><clipPath id="aj"><path d="M 15.78125 26.035156 L 54.214844 -0.140625 L 87.992188 49.449219 L 49.558594 75.625 Z M 15.78125 26.035156"/></clipPath><clipPath id="ak"><path d="M 15.78125 26.035156 L 54.214844 -0.140625 L 87.992188 49.449219 L 49.558594 75.625 Z M 15.78125 26.035156"/></clipPath><clipPath id="al"><path d="M 15.78125 26.035156 L 54.214844 -0.140625 L 87.992188 49.449219 L 49.558594 75.625 Z M 15.78125 26.035156"/></clipPath><clipPath id="am"><path d="M 34 11 L 41 11 L 41 19 L 34 19 Z M 34 11"/></clipPath><clipPath id="an"><path d="M 15.78125 26.035156 L 54.214844 -0.140625 L 87.992188 49.449219 L 49.558594 75.625 Z M 15.78125 26.035156"/></clipPath><clipPath id="ao"><path d="M 15.78125 26.035156 L 54.214844 -0.140625 L 87.992188 49.449219 L 49.558594 75.625 Z M 15.78125 26.035156"/></clipPath><clipPath id="ap"><path d="M 15.78125 26.035156 L 54.214844 -0.140625 L 87.992188 49.449219 L 49.558594 75.625 Z M 15.78125 26.035156"/></clipPath><clipPath id="aq"><path d="M 52 12 L 60 12 L 60 16 L 52 16 Z M 52 12"/></clipPath><clipPath id="ar"><path d="M 15.78125 26.035156 L 54.214844 -0.140625 L 87.992188 49.449219 L 49.558594 75.625 Z M 15.78125 26.035156"/></clipPath><clipPath id="as"><path d="M 15.78125 26.035156 L 54.214844 -0.140625 L 87.992188 49.449219 L 49.558594 75.625 Z M 15.78125 26.035156"/></clipPath><clipPath id="at"><path d="M 15.78125 26.035156 L 54.214844 -0.140625 L 87.992188 49.449219 L 49.558594 75.625 Z M 15.78125 26.035156"/></clipPath><clipPath id="au"><path d="M 43 16 L 50 16 L 50 21 L 43 21 Z M 43 16"/></clipPath><clipPath id="av"><path d="M 15.78125 26.035156 L 54.214844 -0.140625 L 87.992188 49.449219 L 49.558594 75.625 Z M 15.78125 26.035156"/></clipPath><clipPath id="aw"><path d="M 15.78125 26.035156 L 54.214844 -0.140625 L 87.992188 49.449219 L 49.558594 75.625 Z M 15.78125 26.035156"/></clipPath><clipPath id="ax"><path d="M 15.78125 26.035156 L 54.214844 -0.140625 L 87.992188 49.449219 L 49.558594 75.625 Z M 15.78125 26.035156"/></clipPath><clipPath id="ay"><path d="M 57 23 L 59 23 L 59 25 L 57 25 Z M 57 23"/></clipPath><clipPath id="az"><path d="M 15.78125 26.035156 L 54.214844 -0.140625 L 87.992188 49.449219 L 49.558594 75.625 Z M 15.78125 26.035156"/></clipPath><clipPath id="aA"><path d="M 15.78125 26.035156 L 54.214844 -0.140625 L 87.992188 49.449219 L 49.558594 75.625 Z M 15.78125 26.035156"/></clipPath><clipPath id="aB"><path d="M 15.78125 26.035156 L 54.214844 -0.140625 L 87.992188 49.449219 L 49.558594 75.625 Z M 15.78125 26.035156"/></clipPath><clipPath id="aC"><path d="M 57 24 L 59 24 L 59 26 L 57 26 Z M 57 24"/></clipPath><clipPath id="aD"><path d="M 15.78125 26.035156 L 54.214844 -0.140625 L 87.992188 49.449219 L 49.558594 75.625 Z M 15.78125 26.035156"/></clipPath><clipPath id="aE"><path d="M 15.78125 26.035156 L 54.214844 -0.140625 L 87.992188 49.449219 L 49.558594 75.625 Z M 15.78125 26.035156"/></clipPath><clipPath id="aF"><path d="M 15.78125 26.035156 L 54.214844 -0.140625 L 87.992188 49.449219 L 49.558594 75.625 Z M 15.78125 26.035156"/></clipPath></defs><g clip-path="url(#a)"><g clip-path="url(#b)"><g clip-path="url(#c)"><g clip-path="url(#d)"><path fill="#003317" d="M 49.6875 21.683594 C 50.527344 22.210938 51.277344 22.96875 52.007812 23.710938 C 53.726562 25.453125 55.351562 27.097656 58.027344 25.746094 C 58.515625 25.511719 58.820312 25.132812 58.941406 24.605469 C 59.453125 22.65625 57.59375 19.390625 56.886719 18.246094 C 54.410156 20.621094 51.519531 21.421875 49.6875 21.683594 Z M 49.6875 21.683594"/></g></g></g></g><g clip-path="url(#e)"><g clip-path="url(#f)"><g clip-path="url(#g)"><g clip-path="url(#h)"><path fill="#FFD278" d="M 64.28125 27.683594 C 64.234375 27.695312 64.199219 27.722656 64.179688 27.769531 L 61.976562 33.605469 C 61.84375 33.957031 61.59375 34.167969 61.222656 34.238281 C 60.882812 34.308594 60.589844 34.21875 60.351562 33.960938 C 59.148438 32.648438 57.816406 31.476562 56.359375 30.449219 C 56.332031 30.433594 56.304688 30.433594 56.277344 30.445312 C 56.238281 30.457031 56.210938 30.484375 56.195312 30.519531 L 55.167969 36.171875 C 55.167969 36.183594 55.164062 36.195312 55.160156 36.207031 C 55.058594 36.550781 54.839844 36.773438 54.503906 36.882812 C 54.183594 36.992188 53.890625 36.945312 53.621094 36.742188 L 49.636719 33.773438 C 49.601562 33.75 49.566406 33.75 49.53125 33.769531 C 49.492188 33.789062 49.46875 33.820312 49.460938 33.863281 L 50.230469 40.320312 C 51.605469 42.28125 52.753906 44.363281 53.683594 46.566406 C 53.820312 46.90625 53.949219 47.234375 54.070312 47.554688 C 54.070312 47.558594 54.074219 47.5625 54.078125 47.566406 C 55.058594 48.484375 56.21875 48.953125 57.5625 48.976562 C 59.464844 49 61.441406 48.007812 63.4375 46.023438 L 63.457031 46.007812 C 66.097656 41.261719 67.167969 36.597656 67.308594 32.296875 C 66.601562 30.589844 65.613281 29.0625 64.34375 27.714844 C 64.328125 27.695312 64.308594 27.683594 64.28125 27.683594 Z M 64.28125 27.683594"/></g></g></g></g><g clip-path="url(#i)"><g clip-path="url(#j)"><g clip-path="url(#k)"><g clip-path="url(#l)"><path fill="#006838" d="M 57.539062 49.769531 C 56.457031 49.75 55.453125 49.460938 54.527344 48.898438 C 55.53125 52.164062 55.527344 54.613281 55.390625 55.976562 C 58.21875 53.390625 60.441406 50.769531 62.164062 48.160156 L 61.980469 48.28125 C 60.492188 49.292969 59.003906 49.792969 57.539062 49.769531 Z M 57.539062 49.769531"/></g></g></g></g><g clip-path="url(#m)"><g clip-path="url(#n)"><g clip-path="url(#o)"><g clip-path="url(#p)"><path fill="#00A651" d="M 44.753906 12.453125 C 36.964844 17.007812 36.074219 22.457031 36.238281 25.296875 C 36.289062 26.121094 36.644531 26.785156 37.300781 27.285156 C 42.296875 31.117188 46.296875 35.03125 49.273438 38.984375 L 48.664062 33.9375 L 48.660156 33.90625 C 48.648438 33.519531 48.8125 33.238281 49.164062 33.066406 C 49.496094 32.882812 49.816406 32.910156 50.117188 33.140625 L 54.105469 36.109375 C 54.148438 36.144531 54.199219 36.152344 54.253906 36.132812 C 54.316406 36.113281 54.359375 36.070312 54.386719 36.011719 L 55.414062 30.359375 C 55.414062 30.34375 55.417969 30.332031 55.421875 30.320312 C 55.511719 30.015625 55.707031 29.808594 56.003906 29.703125 C 56.289062 29.597656 56.558594 29.628906 56.808594 29.800781 C 58.3125 30.859375 59.6875 32.070312 60.933594 33.425781 C 60.972656 33.464844 61.015625 33.476562 61.066406 33.460938 C 61.144531 33.449219 61.195312 33.40625 61.222656 33.332031 L 63.429688 27.488281 C 63.550781 27.167969 63.78125 26.972656 64.117188 26.90625 C 64.433594 26.835938 64.703125 26.921875 64.925781 27.15625 C 65.863281 28.152344 66.660156 29.25 67.316406 30.449219 C 67.09375 22.230469 63.660156 15.574219 61.875 12.65625 L 61.8125 12.566406 C 61.308594 11.734375 59.726562 10.167969 56.980469 9.558594 C 53.539062 8.789062 49.308594 9.789062 44.753906 12.453125 Z M 59.71875 24.796875 C 59.574219 25.417969 59.234375 25.902344 58.710938 26.261719 C 58.609375 26.328125 58.5 26.390625 58.390625 26.449219 C 55.195312 28.0625 53.203125 26.042969 51.445312 24.265625 C 50.285156 23.09375 49.195312 21.988281 47.832031 21.800781 C 47.726562 21.785156 47.640625 21.738281 47.574219 21.652344 C 47.507812 21.570312 47.480469 21.476562 47.488281 21.371094 C 47.5 21.265625 47.542969 21.175781 47.625 21.105469 C 47.703125 21.035156 47.796875 21.003906 47.902344 21.007812 C 47.957031 21.011719 52.988281 21.171875 56.675781 17.332031 C 56.761719 17.242188 56.867188 17.199219 56.992188 17.210938 C 57.121094 17.222656 57.21875 17.28125 57.289062 17.382812 C 57.417969 17.574219 60.429688 22.070312 59.71875 24.804688 Z M 59.71875 24.796875"/></g></g></g></g><g clip-path="url(#q)"><g clip-path="url(#r)"><g clip-path="url(#s)"><g clip-path="url(#t)"><path fill="#FFF" d="M 49.6875 21.683594 C 50.3125 22.097656 50.886719 22.570312 51.40625 23.105469 C 51.40625 23.105469 54.808594 22.527344 57.679688 19.636719 C 57.378906 19.054688 57.089844 18.570312 56.890625 18.242188 C 54.410156 20.621094 51.519531 21.421875 49.6875 21.683594 Z M 49.6875 21.683594"/></g></g></g></g><g clip-path="url(#u)"><g clip-path="url(#v)"><g clip-path="url(#w)"><g clip-path="url(#x)"><path fill="#990214" d="M 54.6875 22.835938 C 53.953125 23.339844 53.5625 24.191406 53.539062 25.148438 C 54.78125 26.15625 56.144531 26.691406 58.03125 25.738281 C 58.519531 25.503906 58.824219 25.125 58.949219 24.597656 C 59.007812 24.355469 59.039062 24.113281 59.035156 23.863281 C 57.796875 22.449219 55.949219 21.980469 54.6875 22.835938 Z M 54.6875 22.835938"/></g></g></g></g><g clip-path="url(#y)"><g clip-path="url(#z)"><g clip-path="url(#A)"><g clip-path="url(#B)"><path fill="#BE1E2D" d="M 55.550781 23.316406 C 54.816406 23.820312 54.425781 24.671875 54.402344 25.628906 C 54.550781 25.746094 54.699219 25.859375 54.851562 25.964844 C 55.757812 26.347656 56.78125 26.371094 58.03125 25.738281 C 58.519531 25.503906 58.824219 25.125 58.949219 24.597656 C 59.007812 24.355469 59.039062 24.113281 59.035156 23.863281 C 58.800781 23.59375 58.539062 23.351562 58.25 23.144531 C 57.316406 22.761719 56.320312 22.792969 55.550781 23.316406 Z M 55.550781 23.316406"/></g></g></g></g><g clip-path="url(#C)"><g clip-path="url(#D)"><g clip-path="url(#E)"><g clip-path="url(#F)"><path fill="#006838" d="M 38.359375 18.101562 C 36.421875 20.9375 36.136719 23.589844 36.230469 25.296875 C 36.28125 26.121094 36.636719 26.785156 37.292969 27.28125 C 42.289062 31.117188 46.292969 35.03125 49.265625 38.984375 L 48.664062 33.9375 L 48.660156 33.90625 C 48.648438 33.519531 48.8125 33.238281 49.164062 33.066406 C 49.496094 32.882812 49.816406 32.910156 50.117188 33.140625 L 54.105469 36.109375 C 54.148438 36.144531 54.199219 36.152344 54.253906 36.132812 C 54.316406 36.113281 54.359375 36.070312 54.386719 36.011719 C 49.59375 25.722656 38.359375 18.101562 38.359375 18.101562 Z M 38.359375 18.101562"/></g></g></g></g><g clip-path="url(#G)"><g clip-path="url(#H)"><g clip-path="url(#I)"><g clip-path="url(#J)"><path fill="#8AFFAB" d="M 53.902344 9.324219 C 53.902344 9.324219 61.214844 15.742188 64.085938 26.917969 L 64.121094 26.90625 C 64.4375 26.839844 64.707031 26.921875 64.929688 27.15625 C 65.863281 28.152344 66.660156 29.25 67.316406 30.449219 C 67.09375 22.230469 63.660156 15.574219 61.875 12.65625 L 61.8125 12.566406 C 61.308594 11.734375 59.726562 10.167969 56.980469 9.558594 C 55.964844 9.335938 54.9375 9.257812 53.902344 9.324219 Z M 53.902344 9.324219"/></g></g></g></g><g clip-path="url(#K)"><g clip-path="url(#L)"><g clip-path="url(#M)"><g clip-path="url(#N)"><path fill="#E2A840" d="M 54.5 36.886719 C 54.179688 36.996094 53.886719 36.945312 53.617188 36.742188 L 49.636719 33.773438 C 49.601562 33.75 49.5625 33.75 49.527344 33.773438 C 49.488281 33.792969 49.464844 33.824219 49.457031 33.867188 L 50.230469 40.320312 C 51.605469 42.28125 52.753906 44.363281 53.683594 46.566406 C 53.820312 46.90625 53.949219 47.234375 54.070312 47.554688 C 54.070312 47.558594 54.074219 47.5625 54.078125 47.566406 C 54.707031 48.160156 55.441406 48.570312 56.28125 48.796875 C 56.394531 43.042969 55.101562 38.582031 54.519531 36.878906 Z M 54.5 36.886719"/></g></g></g></g><g clip-path="url(#O)"><g clip-path="url(#P)"><g clip-path="url(#Q)"><g clip-path="url(#R)"><path fill="#FFEAC5" d="M 67.3125 32.289062 C 66.601562 30.578125 65.613281 29.050781 64.347656 27.703125 C 64.328125 27.6875 64.304688 27.679688 64.277344 27.6875 C 64.253906 27.691406 64.234375 27.703125 64.21875 27.71875 C 64.480469 30.34375 64.878906 38.992188 60.316406 48.320312 C 61.347656 47.828125 62.394531 47.0625 63.445312 46.015625 L 63.46875 46 C 66.101562 41.257812 67.171875 36.589844 67.3125 32.289062 Z M 67.3125 32.289062"/></g></g></g></g><g clip-path="url(#S)"><g clip-path="url(#T)"><g clip-path="url(#U)"><g clip-path="url(#V)"><path fill="#008241" d="M 60.316406 48.324219 L 55.390625 55.976562 C 55.390625 55.976562 60.476562 51.917969 62.503906 47.910156 Z M 60.316406 48.324219"/></g></g></g></g><g clip-path="url(#W)"><g clip-path="url(#X)"><g clip-path="url(#Y)"><g clip-path="url(#Z)"><path fill="#005128" d="M 56.347656 49.628906 C 55.703125 49.484375 55.097656 49.242188 54.527344 48.898438 C 55.53125 52.164062 55.527344 54.613281 55.390625 55.976562 C 56.09375 53.917969 56.410156 51.800781 56.347656 49.628906 Z M 56.347656 49.628906"/></g></g></g></g><g clip-path="url(#aa)"><g clip-path="url(#ab)"><g clip-path="url(#ac)"><g clip-path="url(#ad)"><path fill="#003317" d="M 56.667969 17.335938 C 52.988281 21.175781 47.953125 21.011719 47.898438 21.011719 C 47.792969 21.007812 47.699219 21.039062 47.617188 21.109375 C 47.539062 21.179688 47.496094 21.265625 47.484375 21.375 C 47.476562 21.480469 47.503906 21.574219 47.570312 21.65625 C 47.636719 21.738281 47.722656 21.789062 47.824219 21.804688 C 49.191406 21.992188 50.28125 23.097656 51.4375 24.269531 C 53.199219 26.046875 55.191406 28.0625 58.386719 26.449219 C 58.496094 26.394531 58.601562 26.332031 58.703125 26.265625 C 59.230469 25.90625 59.566406 25.417969 59.714844 24.800781 C 60.429688 22.070312 57.414062 17.578125 57.289062 17.386719 C 57.214844 17.28125 57.117188 17.222656 56.992188 17.210938 C 56.863281 17.203125 56.757812 17.242188 56.667969 17.335938 Z M 58.941406 24.601562 C 58.820312 25.128906 58.515625 25.507812 58.027344 25.742188 C 55.351562 27.09375 53.726562 25.449219 52.007812 23.707031 C 51.273438 22.96875 50.527344 22.214844 49.6875 21.679688 C 51.515625 21.417969 54.410156 20.617188 56.886719 18.238281 C 57.59375 19.382812 59.453125 22.648438 58.945312 24.601562 Z M 58.941406 24.601562"/></g></g></g></g><g clip-path="url(#ae)"><g clip-path="url(#af)"><g clip-path="url(#ag)"><g clip-path="url(#ah)"><path fill="#003317" d="M 49.777344 41.085938 C 52.410156 44.96875 53.664062 48.324219 54.230469 50.9375 C 52.113281 52.019531 50.195312 53.378906 48.476562 55.019531 C 47.152344 56.257812 45.949219 57.601562 44.875 59.054688 C 43.757812 60.5625 42.800781 62.148438 41.761719 63.703125 C 41.601562 63.945312 41.921875 64.238281 42.121094 64.003906 C 43.960938 61.816406 45.933594 59.734375 47.882812 57.644531 C 49.65625 55.746094 51.632812 54.015625 53.863281 52.679688 C 54.0625 52.5625 54.273438 52.445312 54.480469 52.332031 C 54.78125 54.429688 54.625 55.882812 54.511719 56.527344 C 54.476562 56.761719 54.558594 56.945312 54.757812 57.074219 C 54.957031 57.199219 55.15625 57.199219 55.359375 57.070312 C 55.378906 57.058594 55.398438 57.042969 55.417969 57.03125 C 57.726562 55 59.796875 52.75 61.632812 50.28125 C 63.683594 50.226562 65.675781 50.714844 67.292969 52.042969 C 71.558594 55.550781 66.996094 60.738281 64.179688 63.402344 C 62.125 65.332031 59.851562 66.953125 57.359375 68.269531 C 55.507812 69.253906 52.953125 70.5625 50.855469 69.582031 C 48.753906 68.601562 48.292969 65.734375 48.972656 63.738281 C 49.902344 61.019531 52.367188 59.289062 54.410156 57.4375 C 54.78125 57.101562 54.230469 56.558594 53.84375 56.800781 C 51.535156 58.261719 49.136719 60.191406 48.007812 62.753906 C 47.109375 64.785156 47.113281 67.515625 48.464844 69.34375 C 49.972656 71.390625 52.523438 71.597656 54.800781 70.890625 C 57.617188 70.019531 60.3125 68.296875 62.628906 66.511719 C 64.917969 64.742188 67.148438 62.65625 68.742188 60.222656 C 70.003906 58.292969 70.847656 55.914062 70.035156 53.640625 C 69.167969 51.207031 66.710938 49.777344 64.300781 49.25 C 63.710938 49.125 63.117188 49.046875 62.519531 49.015625 C 63.070312 48.195312 63.582031 47.363281 64.054688 46.523438 C 64.058594 46.515625 64.0625 46.507812 64.066406 46.5 C 64.878906 45.046875 65.578125 43.539062 66.15625 41.980469 C 67.300781 38.890625 67.925781 35.703125 68.039062 32.414062 C 68.117188 32.300781 68.128906 32.175781 68.078125 32.050781 L 68.050781 31.988281 C 68.082031 30.671875 68.035156 29.355469 67.90625 28.042969 C 67.183594 20.722656 64.242188 15 62.558594 12.238281 L 62.5 12.140625 C 61.792969 10.988281 59.972656 9.40625 57.160156 8.78125 C 53.460938 7.960938 49.152344 8.960938 44.355469 11.769531 C 40.75 13.875 38.1875 16.414062 36.742188 19.308594 C 35.519531 21.753906 35.359375 23.945312 35.4375 25.351562 C 35.46875 25.859375 35.605469 26.335938 35.84375 26.785156 C 36.082031 27.234375 36.40625 27.613281 36.8125 27.921875 C 42.789062 32.507812 46.792969 36.816406 49.464844 40.636719 M 55.390625 55.976562 C 55.527344 54.613281 55.53125 52.164062 54.527344 48.898438 C 55.453125 49.460938 56.457031 49.75 57.539062 49.769531 C 59.003906 49.792969 60.492188 49.292969 61.980469 48.277344 L 62.164062 48.152344 C 60.4375 50.765625 58.21875 53.390625 55.390625 55.976562 Z M 67.3125 32.289062 C 67.171875 36.589844 66.105469 41.257812 63.460938 45.996094 L 63.4375 46.011719 C 61.445312 47.996094 59.464844 48.988281 57.5625 48.964844 C 56.222656 48.941406 55.058594 48.472656 54.078125 47.558594 C 54.078125 47.554688 54.074219 47.546875 54.070312 47.542969 C 53.953125 47.222656 53.824219 46.894531 53.683594 46.558594 C 52.757812 44.351562 51.605469 42.269531 50.234375 40.308594 L 49.457031 33.855469 C 49.464844 33.8125 49.488281 33.78125 49.53125 33.761719 C 49.566406 33.742188 49.601562 33.742188 49.636719 33.765625 L 53.621094 36.730469 C 53.890625 36.9375 54.183594 36.984375 54.503906 36.875 C 54.839844 36.765625 55.058594 36.539062 55.160156 36.199219 C 55.164062 36.1875 55.164062 36.175781 55.167969 36.160156 L 56.195312 30.511719 C 56.210938 30.472656 56.238281 30.449219 56.277344 30.4375 C 56.304688 30.425781 56.332031 30.425781 56.359375 30.441406 C 57.816406 31.46875 59.144531 32.636719 60.351562 33.953125 C 60.589844 34.207031 60.878906 34.300781 61.222656 34.226562 C 61.59375 34.160156 61.84375 33.949219 61.972656 33.597656 L 64.179688 27.761719 C 64.199219 27.714844 64.230469 27.683594 64.28125 27.675781 C 64.308594 27.667969 64.332031 27.671875 64.351562 27.691406 C 65.617188 29.042969 66.605469 30.574219 67.3125 32.289062 Z M 61.816406 12.566406 L 61.878906 12.65625 C 63.660156 15.574219 67.089844 22.230469 67.316406 30.449219 C 66.660156 29.25 65.863281 28.152344 64.925781 27.15625 C 64.703125 26.921875 64.433594 26.835938 64.117188 26.90625 C 63.78125 26.972656 63.550781 27.167969 63.429688 27.488281 L 61.222656 33.328125 C 61.195312 33.398438 61.140625 33.441406 61.066406 33.457031 C 61.015625 33.46875 60.96875 33.457031 60.929688 33.421875 C 59.6875 32.0625 58.3125 30.855469 56.808594 29.792969 C 56.558594 29.625 56.289062 29.589844 56.003906 29.695312 C 55.703125 29.804688 55.511719 30.007812 55.421875 30.3125 C 55.417969 30.328125 55.414062 30.339844 55.410156 30.351562 L 54.386719 36.003906 C 54.359375 36.066406 54.316406 36.105469 54.25 36.128906 C 54.199219 36.144531 54.148438 36.136719 54.101562 36.105469 L 50.121094 33.136719 C 49.816406 32.90625 49.5 32.882812 49.164062 33.0625 C 48.816406 33.234375 48.648438 33.515625 48.660156 33.90625 L 48.664062 33.9375 L 49.269531 38.984375 C 46.292969 35.03125 42.292969 31.117188 37.296875 27.285156 C 36.640625 26.785156 36.289062 26.125 36.238281 25.304688 C 36.074219 22.460938 36.96875 17.011719 44.757812 12.457031 C 49.308594 9.792969 53.539062 8.792969 56.988281 9.5625 C 59.730469 10.167969 61.3125 11.734375 61.816406 12.566406 Z M 61.816406 12.566406"/></g></g></g></g><g clip-path="url(#ai)"><g clip-path="url(#aj)"><g clip-path="url(#ak)"><g clip-path="url(#al)"><path fill="#003317" d="M 48.347656 6.316406 C 48.738281 6.222656 49.070312 5.945312 49.4375 5.777344 C 49.824219 5.601562 50.226562 5.46875 50.640625 5.378906 C 51.464844 5.214844 52.292969 5.167969 53.128906 5.25 C 54.675781 5.414062 56.242188 6.296875 57.519531 7.144531 C 57.71875 7.277344 58.050781 7.125 57.941406 6.855469 C 57.167969 4.902344 55.332031 3.933594 53.304688 3.769531 C 52.242188 3.667969 51.234375 3.859375 50.28125 4.34375 C 49.550781 4.707031 48.445312 5.28125 48.136719 6.078125 C 48.105469 6.148438 48.117188 6.210938 48.164062 6.265625 C 48.214844 6.320312 48.273438 6.335938 48.347656 6.316406 Z M 48.347656 6.316406"/></g></g></g></g><g clip-path="url(#am)"><g clip-path="url(#an)"><g clip-path="url(#ao)"><g clip-path="url(#ap)"><path fill="#003317" d="M 35.820312 18.054688 C 35.804688 17.359375 35.742188 16.703125 35.902344 16.015625 C 36.074219 15.3125 36.363281 14.664062 36.773438 14.070312 C 37.59375 12.851562 39.027344 11.976562 40.375 11.449219 C 40.4375 11.425781 40.464844 11.382812 40.460938 11.316406 C 40.457031 11.253906 40.421875 11.210938 40.359375 11.195312 C 38.453125 10.785156 36.730469 11.773438 35.707031 13.375 C 34.863281 14.695312 34.683594 16.789062 35.476562 18.171875 C 35.578125 18.34375 35.824219 18.230469 35.820312 18.054688 Z M 35.820312 18.054688"/></g></g></g></g><g clip-path="url(#aq)"><g clip-path="url(#ar)"><g clip-path="url(#as)"><g clip-path="url(#at)"><path fill="#003317" d="M 55.554688 12.214844 C 53.828125 12.460938 52.949219 14.414062 52.914062 14.5 C 52.871094 14.597656 52.867188 14.699219 52.910156 14.800781 C 52.949219 14.902344 53.019531 14.976562 53.121094 15.019531 C 53.21875 15.0625 53.320312 15.066406 53.421875 15.027344 C 53.523438 14.988281 53.597656 14.917969 53.644531 14.820312 C 53.652344 14.800781 54.375 13.1875 55.667969 13.003906 C 56.5625 12.875 57.566406 13.460938 58.644531 14.746094 C 58.710938 14.824219 58.792969 14.867188 58.894531 14.882812 C 58.996094 14.898438 59.089844 14.875 59.171875 14.816406 L 59.207031 14.796875 C 59.292969 14.722656 59.339844 14.632812 59.347656 14.523438 C 59.359375 14.410156 59.324219 14.3125 59.253906 14.230469 C 57.988281 12.722656 56.742188 12.042969 55.554688 12.214844 Z M 55.554688 12.214844"/></g></g></g></g><g clip-path="url(#au)"><g clip-path="url(#av)"><g clip-path="url(#aw)"><g clip-path="url(#ax)"><path fill="#003317" d="M 45.140625 17.421875 C 46.492188 16.53125 48.546875 17.355469 48.566406 17.359375 C 48.667969 17.410156 48.773438 17.410156 48.878906 17.371094 C 48.988281 17.328125 49.0625 17.253906 49.105469 17.148438 C 49.148438 17.042969 49.144531 16.9375 49.097656 16.835938 C 49.050781 16.730469 48.972656 16.660156 48.867188 16.621094 C 48.765625 16.582031 46.40625 15.625 44.699219 16.75 C 43.65625 17.441406 43.105469 18.730469 43.074219 20.585938 C 43.070312 20.695312 43.109375 20.792969 43.183594 20.875 C 43.261719 20.953125 43.355469 20.996094 43.46875 20.996094 C 43.578125 21 43.675781 20.960938 43.753906 20.882812 C 43.832031 20.804688 43.875 20.710938 43.875 20.597656 C 43.898438 19.039062 44.3125 17.976562 45.109375 17.4375 Z M 45.140625 17.421875"/></g></g></g></g><g clip-path="url(#ay)"><g clip-path="url(#az)"><g clip-path="url(#aA)"><g clip-path="url(#aB)"><path fill="#EA5467" d="M 58.0625 23.554688 C 58.003906 23.53125 57.941406 23.613281 58 23.65625 C 58.195312 23.785156 58.296875 23.96875 58.308594 24.207031 C 58.320312 24.363281 58.289062 24.523438 58.304688 24.679688 C 58.308594 24.742188 58.339844 24.757812 58.390625 24.722656 C 58.601562 24.609375 58.652344 24.332031 58.589844 24.117188 C 58.503906 23.84375 58.328125 23.65625 58.0625 23.554688 Z M 58.0625 23.554688"/></g></g></g></g><g clip-path="url(#aC)"><g clip-path="url(#aD)"><g clip-path="url(#aE)"><g clip-path="url(#aF)"><path fill="#EA5467" d="M 57.933594 24.90625 C 57.839844 24.976562 57.828125 25.0625 57.894531 25.160156 C 57.960938 25.257812 58.042969 25.277344 58.144531 25.21875 C 58.238281 25.144531 58.25 25.058594 58.183594 24.960938 C 58.117188 24.863281 58.035156 24.847656 57.933594 24.90625 Z M 57.933594 24.90625"/></g></g></g></g><g fill="#748AC3"><g><g><path d="M 15.589844 -8.460938 C 12.148438 -7.480469 6.144531 -7.164062 7.09375 -12.5 C 7.726562 -16.117188 11.097656 -19.03125 14.785156 -18.75 C 18.15625 -18.46875 18.15625 -23.738281 14.785156 -24.019531 C 8.078125 -24.546875 2.070312 -18.46875 1.753906 -11.902344 C 1.582031 -8.566406 3.160156 -5.476562 6.109375 -3.792969 C 9.480469 -1.894531 13.449219 -2.386719 16.996094 -3.371094 C 20.261719 -4.320312 18.890625 -9.375 15.589844 -8.460938 Z M 15.589844 -8.460938" transform="translate(77.701 51.334)"/></g></g></g><g fill="#748AC3"><g><g><path d="M 19.523438 -22.332031 C 16.644531 -27.074219 9.128906 -27.671875 5.371094 -23.84375 C 1.683594 -20.683594 1.160156 -13.34375 2.210938 -9.234375 C 2.949219 -6.425781 4.8125 -3.476562 7.691406 -2.5625 C 10.675781 -1.582031 13.976562 -2.667969 16.328125 -4.601562 C 18.714844 -6.601562 20.191406 -9.515625 20.683594 -12.570312 C 21.140625 -15.589844 21.175781 -19.628906 19.523438 -22.332031 Z M 13.132812 -8.671875 C 13.027344 -8.601562 12.957031 -8.53125 12.851562 -8.425781 C 11.726562 -7.480469 9.9375 -7.09375 8.742188 -8.007812 C 7.972656 -8.566406 7.621094 -9.515625 7.375 -10.429688 C 7.023438 -11.9375 6.953125 -13.519531 7.128906 -15.0625 C 7.304688 -16.46875 7.65625 -18.261719 8.460938 -19.417969 C 9.199219 -20.4375 10.429688 -21.070312 11.691406 -21.105469 C 13.871094 -21.140625 15.273438 -19.664062 15.519531 -17.628906 C 15.941406 -14.539062 15.484375 -10.921875 13.132812 -8.671875 Z M 13.132812 -8.671875" transform="translate(96.59 51.334)"/></g></g></g><g fill="#748AC3"><g><g><path d="M 14.1875 -23.984375 C 12.042969 -24.828125 9.515625 -25.175781 7.339844 -24.371094 C 4.847656 -23.421875 3.96875 -21.316406 3.6875 -18.820312 C 2.949219 -12.535156 2.386719 -6.214844 1.753906 0.0703125 C 1.40625 3.441406 6.671875 3.441406 7.023438 0.0703125 C 7.304688 -2.597656 7.550781 -5.265625 7.832031 -7.902344 C 12.394531 -6.847656 17.628906 -8.53125 19.734375 -12.992188 C 22.050781 -17.839844 18.644531 -22.191406 14.1875 -23.984375 Z M 8.390625 -13.238281 C 8.496094 -14.222656 8.566406 -15.238281 8.671875 -16.222656 C 8.742188 -16.960938 8.636719 -18.191406 8.953125 -18.820312 C 9.269531 -19.488281 8.882812 -19.347656 9.65625 -19.558594 C 11.449219 -20.085938 15.414062 -18.085938 15.238281 -16.046875 C 14.992188 -12.816406 10.710938 -12.535156 8.390625 -13.238281 Z M 8.390625 -13.238281" transform="translate(117.585 51.334)"/></g></g></g><g fill="#748AC3"><g><g><path d="M 14.152344 -22.648438 C 13.90625 -20.613281 13.660156 -18.539062 13.378906 -16.503906 C 12.535156 -14.820312 9.9375 -12.078125 7.972656 -13.378906 C 6.003906 -14.679688 7.164062 -19.03125 7.867188 -20.648438 C 9.234375 -23.773438 4.460938 -25.984375 3.089844 -22.859375 C 1.195312 -18.46875 0.667969 -11.203125 5.757812 -8.601562 C 7.65625 -7.621094 9.691406 -7.65625 11.625 -8.320312 C 10.992188 -6.777344 10.007812 -5.441406 8.425781 -4.742188 C 5.371094 -3.335938 7.199219 1.582031 10.324219 0.175781 C 18.433594 -3.476562 18.363281 -14.152344 19.347656 -21.734375 C 19.769531 -25.105469 14.609375 -26.019531 14.152344 -22.648438 Z M 14.152344 -22.648438" transform="translate(138.088 51.334)"/></g></g></g><g fill="#748AC3"><g><g><path d="M 15.589844 -8.460938 C 12.148438 -7.480469 6.144531 -7.164062 7.09375 -12.5 C 7.726562 -16.117188 11.097656 -19.03125 14.785156 -18.75 C 18.15625 -18.46875 18.15625 -23.738281 14.785156 -24.019531 C 8.078125 -24.546875 2.070312 -18.46875 1.753906 -11.902344 C 1.582031 -8.566406 3.160156 -5.476562 6.109375 -3.792969 C 9.480469 -1.894531 13.449219 -2.386719 16.996094 -3.371094 C 20.261719 -4.320312 18.890625 -9.375 15.589844 -8.460938 Z M 15.589844 -8.460938" transform="translate(157.468 51.334)"/></g></g></g><g fill="#748AC3"><g><g><path d="M 19.523438 -22.332031 C 16.644531 -27.074219 9.128906 -27.671875 5.371094 -23.84375 C 1.683594 -20.683594 1.160156 -13.34375 2.210938 -9.234375 C 2.949219 -6.425781 4.8125 -3.476562 7.691406 -2.5625 C 10.675781 -1.582031 13.976562 -2.667969 16.328125 -4.601562 C 18.714844 -6.601562 20.191406 -9.515625 20.683594 -12.570312 C 21.140625 -15.589844 21.175781 -19.628906 19.523438 -22.332031 Z M 13.132812 -8.671875 C 13.027344 -8.601562 12.957031 -8.53125 12.851562 -8.425781 C 11.726562 -7.480469 9.9375 -7.09375 8.742188 -8.007812 C 7.972656 -8.566406 7.621094 -9.515625 7.375 -10.429688 C 7.023438 -11.9375 6.953125 -13.519531 7.128906 -15.0625 C 7.304688 -16.46875 7.65625 -18.261719 8.460938 -19.417969 C 9.199219 -20.4375 10.429688 -21.070312 11.691406 -21.105469 C 13.871094 -21.140625 15.273438 -19.664062 15.519531 -17.628906 C 15.941406 -14.539062 15.484375 -10.921875 13.132812 -8.671875 Z M 13.132812 -8.671875" transform="translate(176.356 51.334)"/></g></g></g><g fill="#748AC3"><g><g><path d="M 15.449219 -8.742188 C 12.710938 -8.53125 10.007812 -8.148438 7.339844 -7.585938 C 7.796875 -11.902344 8.21875 -16.222656 8.636719 -20.542969 C 8.953125 -23.914062 3.6875 -23.914062 3.371094 -20.542969 C 2.84375 -15.0625 2.28125 -9.585938 1.753906 -4.109375 C 1.582031 -2.386719 3.582031 -1.160156 5.089844 -1.582031 C 8.496094 -2.5625 11.9375 -3.195312 15.449219 -3.476562 C 18.820312 -3.722656 18.855469 -8.988281 15.449219 -8.742188 Z M 15.449219 -8.742188" transform="translate(197.351 51.334)"/></g></g></g><g fill="#748AC3"><g><g><path d="M 19.523438 -22.332031 C 16.644531 -27.074219 9.128906 -27.671875 5.371094 -23.84375 C 1.683594 -20.683594 1.160156 -13.34375 2.210938 -9.234375 C 2.949219 -6.425781 4.8125 -3.476562 7.691406 -2.5625 C 10.675781 -1.582031 13.976562 -2.667969 16.328125 -4.601562 C 18.714844 -6.601562 20.191406 -9.515625 20.683594 -12.570312 C 21.140625 -15.589844 21.175781 -19.628906 19.523438 -22.332031 Z M 13.132812 -8.671875 C 13.027344 -8.601562 12.957031 -8.53125 12.851562 -8.425781 C 11.726562 -7.480469 9.9375 -7.09375 8.742188 -8.007812 C 7.972656 -8.566406 7.621094 -9.515625 7.375 -10.429688 C 7.023438 -11.9375 6.953125 -13.519531 7.128906 -15.0625 C 7.304688 -16.46875 7.65625 -18.261719 8.460938 -19.417969 C 9.199219 -20.4375 10.429688 -21.070312 11.691406 -21.105469 C 13.871094 -21.140625 15.273438 -19.664062 15.519531 -17.628906 C 15.941406 -14.539062 15.484375 -10.921875 13.132812 -8.671875 Z M 13.132812 -8.671875" transform="translate(215.362 51.334)"/></g></g></g><g fill="#748AC3"><g><g><path d="M 19.945312 -3.335938 C 18.015625 -5.96875 15.800781 -8.320312 13.273438 -10.359375 C 15.167969 -11.691406 16.75 -13.554688 17.417969 -15.554688 C 18.75 -19.558594 15.167969 -23.492188 11.097656 -23.316406 C 6.777344 -23.105469 3.933594 -19.101562 3.160156 -15.203125 C 2.140625 -10.148438 2.140625 -4.777344 1.753906 0.351562 C 1.476562 3.722656 6.742188 3.722656 7.023438 0.351562 C 7.234375 -2.421875 7.445312 -5.195312 7.691406 -7.972656 C 10.675781 -6.003906 13.273438 -3.582031 15.414062 -0.667969 C 17.382812 2.035156 21.980469 -0.597656 19.945312 -3.335938 Z M 12.429688 -17.382812 C 12.570312 -16.820312 10.992188 -15.414062 10.570312 -15.027344 C 9.832031 -14.363281 9.128906 -13.871094 8.21875 -13.765625 C 8.320312 -14.363281 8.460938 -14.960938 8.707031 -15.519531 C 8.953125 -16.1875 11.9375 -19.769531 12.429688 -17.382812 Z M 12.429688 -17.382812" transform="translate(236.357 51.334)"/></g></g></g><path transform="matrix(.75 0 0 .75 69.306 16.5)" fill="none" d="M 31.743524 31.718756 C 27.149773 33.031256 19.149773 33.442714 20.404981 26.333339 C 21.25394 21.510422 25.743523 17.625005 30.66019 18.000005 C 35.165399 18.380213 35.165399 11.348962 30.66019 10.968754 C 21.72269 10.276046 13.717481 18.380213 13.295606 27.125005 C 13.056022 31.583339 15.170606 35.697923 19.102898 37.947923 C 23.59769 40.473965 28.889357 39.812506 33.608107 38.505215 C 37.962274 37.23959 36.144566 30.494797 31.743524 31.718756 Z M 62.165401 13.223963 C 58.337276 6.901045 48.311233 6.10417 43.306025 11.213546 C 38.389358 15.416671 37.681024 25.213547 39.087274 30.687506 C 40.071649 34.427089 42.550816 38.359381 46.389358 39.58334 C 50.368525 40.89584 54.769567 39.442715 57.915401 36.859381 C 61.092485 34.197923 63.056026 30.312506 63.717485 26.244797 C 64.32686 22.208338 64.373735 16.822921 62.165401 13.223963 Z M 53.649776 31.432297 C 53.514359 31.526047 53.410192 31.625006 53.274776 31.765631 C 51.774775 33.031256 49.38415 33.546881 47.795608 32.322922 C 46.769567 31.583339 46.300817 30.312506 45.967483 29.088547 C 45.498733 27.07813 45.410192 24.973964 45.63415 22.916672 C 45.878942 21.041672 46.347692 18.651046 47.420608 17.10938 C 48.404983 15.750004 50.050817 14.901046 51.7279 14.859379 C 54.634151 14.812504 56.509151 16.776046 56.826859 19.500005 C 57.399776 23.614588 56.779984 28.437505 53.649776 31.432297 Z M 83.05082 11.015629 C 80.191444 9.895837 76.821652 9.427087 73.915402 10.505212 C 70.587277 11.770837 69.425819 14.583338 69.04561 17.911463 C 68.061235 26.286464 67.321652 34.713548 66.472693 43.093757 C 66.003943 47.58334 73.024777 47.58334 73.493527 43.093757 C 73.868527 39.536465 74.201861 35.979173 74.566444 32.458339 C 80.660194 33.864589 87.634153 31.625006 90.446654 25.67188 C 93.529987 19.213546 88.993528 13.406254 83.05082 11.015629 Z M 75.321652 25.348964 C 75.457069 24.036463 75.550819 22.677088 75.696652 21.375005 C 75.790402 20.39063 75.654986 18.744796 76.066444 17.911463 C 76.488319 17.01563 75.972694 17.20313 77.003944 16.927088 C 79.389361 16.218754 84.681028 18.89063 84.45707 21.604172 C 84.123736 25.911464 78.410194 26.286464 75.321652 25.348964 Z M 110.342489 12.802088 C 110.009155 15.520838 109.675822 18.276046 109.311238 20.994797 C 108.18103 23.23438 104.717488 26.895839 102.097696 25.156255 C 99.472696 23.432297 101.024779 17.625005 101.96228 15.473963 C 103.779988 11.302087 97.415404 8.35417 95.582071 12.526046 C 93.056029 18.380213 92.358112 28.062505 99.149779 31.526047 C 101.675821 32.838547 104.384155 32.791672 106.967488 31.901047 C 106.123738 33.958339 104.80603 35.739589 102.707071 36.677089 C 98.634154 38.55209 101.071654 45.104173 105.233113 43.229173 C 116.045614 38.359381 115.951864 24.130213 117.269572 14.020838 C 117.826864 9.520837 110.946655 8.307295 110.342489 12.802088 Z M 138.102907 31.718756 C 133.503949 33.031256 125.503948 33.442714 126.764365 26.333339 C 127.608115 21.510422 132.097699 17.625005 137.014366 18.000005 C 141.519574 18.380213 141.519574 11.348962 137.014366 10.968754 C 128.076865 10.276046 120.076864 18.380213 119.649781 27.125005 C 119.410198 31.583339 121.524781 35.697923 125.457073 37.947923 C 129.951865 40.473965 135.243532 39.812506 139.962283 38.505215 C 144.321658 37.23959 142.50395 30.494797 138.102907 31.718756 Z M 168.519577 13.223963 C 164.691451 6.901045 154.665409 6.10417 149.6602 11.213546 C 144.743533 15.416671 144.0352 25.213547 145.44145 30.687506 C 146.425825 34.427089 148.904992 38.359381 152.748742 39.58334 C 156.722701 40.89584 161.123743 39.442715 164.269576 36.859381 C 167.44666 34.197923 169.41541 30.312506 170.076868 26.244797 C 170.681035 22.208338 170.72791 16.822921 168.519577 13.223963 Z M 160.003951 31.432297 C 159.868534 31.526047 159.764368 31.625006 159.628951 31.765631 C 158.128951 33.031256 155.743534 33.546881 154.154992 32.322922 C 153.123742 31.583339 152.654992 30.312506 152.321659 29.088547 C 151.852909 27.07813 151.764367 24.973964 151.993534 22.916672 C 152.233117 21.041672 152.701867 18.651046 153.774784 17.10938 C 154.759159 15.750004 156.404992 14.901046 158.087284 14.859379 C 160.988326 14.812504 162.863326 16.776046 163.181035 19.500005 C 163.753951 23.614588 163.139368 28.437505 160.003951 31.432297 Z M 191.087287 31.338547 C 187.436245 31.625006 183.82687 32.140631 180.269578 32.885422 C 180.878953 27.125005 181.436244 21.375005 182.009161 15.614588 C 182.420619 11.119796 175.399786 11.119796 174.977911 15.614588 C 174.279994 22.916672 173.529994 30.218756 172.832077 37.526048 C 172.592494 39.812506 175.264369 41.45834 177.274786 40.89584 C 181.816453 39.58334 186.410203 38.734381 191.087287 38.359381 C 195.576871 38.041673 195.634162 31.010422 191.087287 31.338547 Z M 220.529998 13.223963 C 216.701872 6.901045 206.67583 6.10417 201.670621 11.213546 C 196.753954 15.416671 196.045621 25.213547 197.451871 30.687506 C 198.431037 34.427089 200.915413 38.359381 204.753955 39.58334 C 208.733122 40.89584 213.134164 39.442715 216.274789 36.859381 C 219.451872 34.197923 221.420623 30.312506 222.082081 26.244797 C 222.691456 22.208338 222.733123 16.822921 220.529998 13.223963 Z M 212.014372 31.432297 C 211.873747 31.526047 211.774789 31.625006 211.634163 31.765631 C 210.139372 33.031256 207.748747 33.546881 206.160205 32.322922 C 205.134163 31.583339 204.665413 30.312506 204.33208 29.088547 C 203.86333 27.07813 203.76958 24.973964 203.998746 22.916672 C 204.23833 21.041672 204.70708 18.651046 205.785205 17.10938 C 206.764371 15.750004 208.410205 14.901046 210.092497 14.859379 C 212.993539 14.812504 214.868539 16.776046 215.191455 19.500005 C 215.764372 23.614588 215.14458 28.437505 212.014372 31.432297 Z M 249.0925 38.55209 C 246.509166 35.041673 243.561249 31.901047 240.191457 29.192714 C 242.717499 27.406255 244.832083 24.927088 245.722708 22.255213 C 247.493541 16.927088 242.717499 11.682296 237.285207 11.906254 C 231.535207 12.192712 227.74354 17.531255 226.71229 22.723963 C 225.352915 29.463547 225.352915 36.635423 224.83729 43.468757 C 224.46229 47.95834 231.477915 47.95834 231.858123 43.468757 C 232.144582 39.765631 232.415415 36.072923 232.748749 32.369797 C 236.727916 35.000006 240.191457 38.223965 243.045624 42.109382 C 245.675833 45.718757 251.800833 42.197923 249.0925 38.55209 Z M 239.066457 19.817713 C 239.253957 20.572921 237.149791 22.447922 236.587291 22.963547 C 235.602915 23.854172 234.670624 24.505213 233.446665 24.64063 C 233.592499 23.854172 233.77479 23.052088 234.108124 22.312505 C 234.425832 21.416672 238.415416 16.640629 239.066457 19.817713 Z M 239.066457 19.817713" stroke="#1A3886" stroke-width="1.873"/></svg>